<?xml version="1.0" encoding="UTF-8"?>
<svg id="_图层_1" data-name="图层 1" xmlns="http://www.w3.org/2000/svg" version="1.1" viewBox="0 0 256 256">
  <defs>
    <style>
      .cls-1 {
        fill: #a396e2;
      }

      .cls-1, .cls-2, .cls-3 {
        stroke-width: 0px;
      }

      .cls-2 {
        fill: #f4f4f4;
      }

      .cls-3 {
        display: none;
        fill: #f4f8f1;
      }
    </style>
  </defs>
  <path class="cls-1" d="M241,99.8v56.3c0,62.2-23.1,84.8-84.8,84.8h-56.3c-62.2,0-84.8-23.1-84.8-84.8v-56.3C15,37.7,38.1,15,99.8,15h56.3c62.2,0,84.8,23.1,84.8,84.8Z"/>
  <path class="cls-3" d="M203.1,188.2c-3.8,6.7-11.4,10-20.5,10s-17.3-2.6-26.4-7.9c-19.5-11.3-28.8-29.2-21.6-41.7,7.2-12.5,27.4-13.4,46.9-2.2,19.5,11.3,28.8,29.2,21.6,41.7Z"/>
  <path class="cls-3" d="M180.6,101.3s0,0-.2,0c-2.1.3-3.9-1.7-5-3.2-1.5-2-2.4-4.5-3.9-6.5-2.3-3-5.3-5.5-8.6-7.2-4.9-2.5-10.4-3.7-15.8-3.7s-11.3,1.4-16.8,2.6c-.6.1-6.1,1.2-6.1,1.4,0,12,0,24.1,0,36.1,0,7.3,0,14.6,0,22,0,7.8.7,15.6-1.8,23.1-3.2,9.5-10.7,16.9-18.9,22.3-1.2.8-2.4,1.5-3.6,2.2-9.1,5.3-18.4,7.9-26.4,7.9s-16.7-3.4-20.5-10c-7.2-12.5,2.1-30.4,21.6-41.7,12-6.9,24.2-9.2,33.5-7.1,0-10.9,0-21.9,0-32.8s0-23.3,0-35,0-5,0-7.5-.3-7,.1-10.5c.4-3.4,2.3-6.1,5.7-7,2.5-.7,5.3-.1,7.3,1.7s2.2,2.6,3.3,4c2.6,3.7,6.4,6.5,10.5,8.4,2.1.9,4.2,1.6,6.4,2.1,4.4,1.1,9,1.4,13.4,2.4s8.7,2.5,12.5,4.8c4.5,2.8,8.2,6.8,10.8,11.4,2,3.5,3.3,7.4,4.1,11.3s1.8,7.8-1.6,8.5Z"/>
  <path id="path4" class="cls-2" d="M128,68.2c-41.3,0-74.8,26.8-74.8,59.8,0,33,33.5,59.8,74.8,59.8h0c41.3,0,74.8-26.8,74.8-59.8h0c0-33-33.5-59.8-74.8-59.8ZM115.1,80.1c15.2-.5,30.5,12.3,41.5,31.4,14.1,24.4,15.8,49.8-3.1,60.7-18.8,10.9-40-3.3-54.1-27.7-14.1-24.4-15.8-49.8,3.1-60.7,4.1-2.4,8.4-3.6,12.6-3.7h0Z"/>
</svg>